# xmcd CD database file
#
# Track frame offsets:
#	150
#	46241
#	61608
#	91645
#	123037
#	153036
#	177914
#	203838
#	230366
#
# Disc length: 3327 seconds
#
# Revision: 0
# Processed by: cddbd v1.5PL3 Copyright (c) Steve Scherf et al.
# Submitted via: CDex 1.51
#
DISCID=5b0cfd09
DTITLE=Richard Ackrill - Dolphins - The Homecoming
DYEAR=2001
DGENRE=New Age
TTITLE0=Messenger
TTITLE1=Odyssey
TTITLE2=Twilight Ocean
TTITLE3=Communion
TTITLE4=Dolphin Serenade
TTITLE5=In The Light Of The Moon
TTITLE6=Rainmaker
TTITLE7=Epiphany
TTITLE8=Elysian Fields
EXTD=YEAR: 2001
EXTT0=
EXTT1=
EXTT2=
EXTT3=
EXTT4=
EXTT5=
EXTT6=
EXTT7=
EXTT8=
PLAYORDER=
